# xmcd
#
# Track frame offsets:
# 150
# 17426
# 30307
# 49686
# 70504
# 91176
# 104724
# 119500
# 140286
# 158020
# 178083
# 192757
# 208185
# 221698
# 233334
# 247056
# 257765
# 271761
# 292465
#
# Disc length: 4177 seconds
#
#
# Revision: 0
# Processed by: cddbd v1.5.1PL2 Copyright (c) Steve Scherf et al.
# Submitted via: FreeRIP 2.945 
#
DISCID=0f104f13
DTITLE=MERCEDES SOSA - MIS 30 EXITOS
DYEAR=1999
DGENRE=FOLKLORE ARGENTINO
TTITLE0=La maza
TTITLE1=Maria Maria
TTITLE2=Gracias a la vida
TTITLE3=Todo cambia
TTITLE4=Solo le pido a dios
TTITLE5=Cancion con todos
TTITLE6=Años
TTITLE7=Alfonsina y el mar
TTITLE8=Maria va
TTITLE9=Unicornio
TTITLE10=Cancion para Carito
TTITLE11=Luna tucumana
TTITLE12=Hermano dame tu mano
TTITLE13=Como la cigarra
TTITLE14=Si se calla el cantor
TTITLE15=Inconciente colectivo
TTITLE16=La arenosa
TTITLE17=Duerme negrito
TTITLE18=Al jardin de la republica
EXTD=
EXTT0=
EXTT1=
EXTT2=
EXTT3=
EXTT4=
EXTT5=
EXTT6=
EXTT7=
EXTT8=
EXTT9=
EXTT10=
EXTT11=
EXTT12=
EXTT13=
EXTT14=
EXTT15=
EXTT16=
EXTT17=
EXTT18=
PLAYORDER=
